<?xml version="1.0" standalone="no"?>
<!DOCTYPE svg PUBLIC "-//W3C//DTD SVG 1.1//EN"
   "http://www.w3.org/Graphics/SVG/1.1/DTD/svg11.dtd">
<svg width="860" height="860" version="1.1"
   xmlns="http://www.w3.org/2000/svg">
   <desc>Zint Generated Symbol
   </desc>

   <g id="barcode" fill="#000000">
      <rect x="0" y="0" width="860" height="860" fill="#FFFFFF" />
      <rect x="20.00" y="700.00" width="20.00" height="140.00" />
      <rect x="20.00" y="660.00" width="60.00" height="20.00" />
      <rect x="20.00" y="620.00" width="20.00" height="20.00" />
      <rect x="20.00" y="480.00" width="20.00" height="120.00" />
      <rect x="20.00" y="380.00" width="20.00" height="40.00" />
      <rect x="20.00" y="320.00" width="20.00" height="40.00" />
      <rect x="20.00" y="260.00" width="20.00" height="20.00" />
      <rect x="20.00" y="200.00" width="20.00" height="20.00" />
      <rect x="20.00" y="20.00" width="20.00" height="140.00" />
      <rect x="40.00" y="820.00" width="100.00" height="20.00" />
      <rect x="40.00" y="700.00" width="100.00" height="20.00" />
      <rect x="40.00" y="600.00" width="20.00" height="20.00" />
      <rect x="40.00" y="540.00" width="20.00" height="40.00" />
      <rect x="40.00" y="500.00" width="20.00" height="20.00" />
      <rect x="40.00" y="360.00" width="20.00" height="120.00" />
      <rect x="40.00" y="280.00" width="20.00" height="60.00" />
      <rect x="40.00" y="220.00" width="20.00" height="20.00" />
      <rect x="40.00" y="180.00" width="20.00" height="20.00" />
      <rect x="40.00" y="140.00" width="100.00" height="20.00" />
      <rect x="40.00" y="20.00" width="100.00" height="20.00" />
      <rect x="60.00" y="740.00" width="60.00" height="60.00" />
      <rect x="60.00" y="520.00" width="20.00" height="120.00" />
      <rect x="60.00" y="480.00" width="20.00" height="20.00" />
      <rect x="60.00" y="420.00" width="20.00" height="20.00" />
      <rect x="60.00" y="320.00" width="20.00" height="20.00" />
      <rect x="60.00" y="260.00" width="20.00" height="20.00" />
      <rect x="60.00" y="180.00" width="20.00" height="40.00" />
      <rect x="60.00" y="60.00" width="60.00" height="60.00" />
      <rect x="80.00" y="640.00" width="20.00" height="20.00" />
      <rect x="80.00" y="540.00" width="20.00" height="60.00" />
      <rect x="80.00" y="420.00" width="20.00" height="80.00" />
      <rect x="80.00" y="340.00" width="20.00" height="40.00" />
      <rect x="80.00" y="300.00" width="20.00" height="20.00" />
      <rect x="80.00" y="200.00" width="20.00" height="40.00" />
      <rect x="100.00" y="620.00" width="20.00" height="20.00" />
      <rect x="100.00" y="500.00" width="20.00" height="20.00" />
      <rect x="100.00" y="360.00" width="20.00" height="100.00" />
      <rect x="100.00" y="320.00" width="20.00" height="20.00" />
      <rect x="100.00" y="180.00" width="20.00" height="40.00" />
      <rect x="120.00" y="620.00" width="20.00" height="60.00" />
      <rect x="120.00" y="460.00" width="20.00" height="60.00" />
      <rect x="120.00" y="380.00" width="40.00" height="20.00" />
      <rect x="120.00" y="340.00" width="40.00" height="20.00" />
      <rect x="120.00" y="280.00" width="20.00" height="20.00" />
      <rect x="120.00" y="220.00" width="40.00" height="20.00" />
      <rect x="120.00" y="180.00" width="40.00" height="20.00" />
      <rect x="140.00" y="700.00" width="20.00" height="140.00" />
      <rect x="140.00" y="660.00" width="20.00" height="20.00" />
      <rect x="140.00" y="620.00" width="20.00" height="20.00" />
      <rect x="140.00" y="580.00" width="20.00" height="20.00" />
      <rect x="140.00" y="540.00" width="20.00" height="20.00" />
      <rect x="140.00" y="500.00" width="40.00" height="20.00" />
      <rect x="140.00" y="460.00" width="20.00" height="20.00" />
      <rect x="140.00" y="420.00" width="20.00" height="20.00" />
      <rect x="140.00" y="300.00" width="20.00" height="20.00" />
      <rect x="140.00" y="260.00" width="20.00" height="20.00" />
      <rect x="140.00" y="20.00" width="20.00" height="140.00" />
      <rect x="160.00" y="600.00" width="20.00" height="80.00" />
      <rect x="160.00" y="560.00" width="20.00" height="20.00" />
      <rect x="160.00" y="420.00" width="20.00" height="60.00" />
      <rect x="160.00" y="320.00" width="20.00" height="20.00" />
      <rect x="160.00" y="180.00" width="20.00" height="40.00" />
      <rect x="180.00" y="740.00" width="20.00" height="60.00" />
      <rect x="180.00" y="700.00" width="20.00" height="20.00" />
      <rect x="180.00" y="660.00" width="20.00" height="20.00" />
      <rect x="180.00" y="620.00" width="20.00" height="20.00" />
      <rect x="180.00" y="520.00" width="20.00" height="20.00" />
      <rect x="180.00" y="400.00" width="20.00" height="60.00" />
      <rect x="180.00" y="280.00" width="20.00" height="60.00" />
      <rect x="180.00" y="240.00" width="20.00" height="20.00" />
      <rect x="180.00" y="120.00" width="20.00" height="60.00" />
      <rect x="180.00" y="20.00" width="40.00" height="60.00" />
      <rect x="200.00" y="760.00" width="20.00" height="40.00" />
      <rect x="200.00" y="720.00" width="20.00" height="20.00" />
      <rect x="200.00" y="600.00" width="20.00" height="20.00" />
      <rect x="200.00" y="420.00" width="20.00" height="160.00" />
      <rect x="200.00" y="380.00" width="20.00" height="20.00" />
      <rect x="200.00" y="180.00" width="20.00" height="100.00" />
      <rect x="200.00" y="100.00" width="20.00" height="60.00" />
      <rect x="220.00" y="800.00" width="20.00" height="20.00" />
      <rect x="220.00" y="700.00" width="20.00" height="40.00" />
      <rect x="220.00" y="540.00" width="20.00" height="120.00" />
      <rect x="220.00" y="480.00" width="20.00" height="40.00" />
      <rect x="220.00" y="380.00" width="20.00" height="60.00" />
      <rect x="220.00" y="340.00" width="20.00" height="20.00" />
      <rect x="220.00" y="260.00" width="20.00" height="60.00" />
      <rect x="220.00" y="220.00" width="20.00" height="20.00" />
      <rect x="220.00" y="160.00" width="20.00" height="40.00" />
      <rect x="240.00" y="820.00" width="20.00" height="20.00" />
      <rect x="240.00" y="720.00" width="20.00" height="20.00" />
      <rect x="240.00" y="600.00" width="20.00" height="100.00" />
      <rect x="240.00" y="480.00" width="20.00" height="60.00" />
      <rect x="240.00" y="360.00" width="20.00" height="20.00" />
      <rect x="240.00" y="280.00" width="20.00" height="20.00" />
      <rect x="240.00" y="180.00" width="20.00" height="40.00" />
      <rect x="240.00" y="80.00" width="20.00" height="40.00" />
      <rect x="240.00" y="40.00" width="20.00" height="20.00" />
      <rect x="260.00" y="740.00" width="20.00" height="80.00" />
      <rect x="260.00" y="700.00" width="20.00" height="20.00" />
      <rect x="260.00" y="580.00" width="20.00" height="100.00" />
      <rect x="260.00" y="520.00" width="20.00" height="40.00" />
      <rect x="260.00" y="440.00" width="20.00" height="20.00" />
      <rect x="260.00" y="400.00" width="20.00" height="20.00" />
      <rect x="260.00" y="240.00" width="20.00" height="100.00" />
      <rect x="260.00" y="200.00" width="20.00" height="20.00" />
      <rect x="260.00" y="160.00" width="20.00" height="20.00" />
      <rect x="260.00" y="60.00" width="20.00" height="40.00" />
      <rect x="280.00" y="800.00" width="20.00" height="40.00" />
      <rect x="280.00" y="740.00" width="20.00" height="40.00" />
      <rect x="280.00" y="680.00" width="20.00" height="20.00" />
      <rect x="280.00" y="560.00" width="20.00" height="60.00" />
      <rect x="280.00" y="500.00" width="20.00" height="20.00" />
      <rect x="280.00" y="340.00" width="20.00" height="80.00" />
      <rect x="280.00" y="280.00" width="20.00" height="40.00" />
      <rect x="280.00" y="180.00" width="20.00" height="20.00" />
      <rect x="280.00" y="20.00" width="20.00" height="120.00" />
      <rect x="300.00" y="760.00" width="20.00" height="60.00" />
      <rect x="300.00" y="620.00" width="20.00" height="120.00" />
      <rect x="300.00" y="500.00" width="20.00" height="60.00" />
      <rect x="300.00" y="460.00" width="20.00" height="20.00" />
      <rect x="300.00" y="420.00" width="20.00" height="20.00" />
      <rect x="300.00" y="320.00" width="20.00" height="60.00" />
      <rect x="300.00" y="200.00" width="20.00" height="100.00" />
      <rect x="300.00" y="160.00" width="20.00" height="20.00" />
      <rect x="300.00" y="80.00" width="20.00" height="60.00" />
      <rect x="320.00" y="620.00" width="20.00" height="80.00" />
      <rect x="320.00" y="580.00" width="20.00" height="20.00" />
      <rect x="320.00" y="540.00" width="20.00" height="20.00" />
      <rect x="320.00" y="480.00" width="20.00" height="40.00" />
      <rect x="320.00" y="360.00" width="20.00" height="20.00" />
      <rect x="320.00" y="320.00" width="20.00" height="20.00" />
      <rect x="320.00" y="280.00" width="40.00" height="20.00" />
      <rect x="320.00" y="180.00" width="20.00" height="60.00" />
      <rect x="320.00" y="80.00" width="20.00" height="80.00" />
      <rect x="340.00" y="820.00" width="20.00" height="20.00" />
      <rect x="340.00" y="640.00" width="20.00" height="160.00" />
      <rect x="340.00" y="580.00" width="20.00" height="40.00" />
      <rect x="340.00" y="500.00" width="40.00" height="20.00" />
      <rect x="340.00" y="440.00" width="20.00" height="20.00" />
      <rect x="340.00" y="400.00" width="20.00" height="20.00" />
      <rect x="340.00" y="240.00" width="20.00" height="20.00" />
      <rect x="340.00" y="200.00" width="20.00" height="20.00" />
      <rect x="340.00" y="160.00" width="20.00" height="20.00" />
      <rect x="340.00" y="120.00" width="20.00" height="20.00" />
      <rect x="340.00" y="20.00" width="20.00" height="60.00" />
      <rect x="360.00" y="800.00" width="40.00" height="40.00" />
      <rect x="360.00" y="720.00" width="20.00" height="60.00" />
      <rect x="360.00" y="680.00" width="20.00" height="20.00" />
      <rect x="360.00" y="620.00" width="40.00" height="40.00" />
      <rect x="360.00" y="580.00" width="40.00" height="20.00" />
      <rect x="360.00" y="540.00" width="20.00" height="20.00" />
      <rect x="360.00" y="460.00" width="20.00" height="20.00" />
      <rect x="360.00" y="380.00" width="20.00" height="60.00" />
      <rect x="360.00" y="300.00" width="20.00" height="20.00" />
      <rect x="360.00" y="200.00" width="20.00" height="60.00" />
      <rect x="360.00" y="20.00" width="20.00" height="140.00" />
      <rect x="380.00" y="700.00" width="20.00" height="60.00" />
      <rect x="380.00" y="520.00" width="20.00" height="40.00" />
      <rect x="380.00" y="420.00" width="20.00" height="40.00" />
      <rect x="380.00" y="280.00" width="20.00" height="40.00" />
      <rect x="380.00" y="240.00" width="20.00" height="20.00" />
      <rect x="380.00" y="160.00" width="20.00" height="40.00" />
      <rect x="380.00" y="60.00" width="20.00" height="60.00" />
      <rect x="400.00" y="780.00" width="20.00" height="20.00" />
      <rect x="400.00" y="720.00" width="20.00" height="40.00" />
      <rect x="400.00" y="660.00" width="40.00" height="20.00" />
      <rect x="400.00" y="540.00" width="20.00" height="100.00" />
      <rect x="400.00" y="420.00" width="20.00" height="60.00" />
      <rect x="400.00" y="300.00" width="20.00" height="20.00" />
      <rect x="400.00" y="200.00" width="20.00" height="60.00" />
      <rect x="400.00" y="140.00" width="20.00" height="20.00" />
      <rect x="400.00" y="100.00" width="40.00" height="20.00" />
      <rect x="420.00" y="780.00" width="20.00" height="60.00" />
      <rect x="420.00" y="700.00" width="20.00" height="20.00" />
      <rect x="420.00" y="520.00" width="20.00" height="60.00" />
      <rect x="420.00" y="360.00" width="20.00" height="100.00" />
      <rect x="420.00" y="280.00" width="20.00" height="20.00" />
      <rect x="420.00" y="60.00" width="20.00" height="20.00" />
      <rect x="440.00" y="820.00" width="20.00" height="20.00" />
      <rect x="440.00" y="760.00" width="20.00" height="20.00" />
      <rect x="440.00" y="720.00" width="20.00" height="20.00" />
      <rect x="440.00" y="680.00" width="20.00" height="20.00" />
      <rect x="440.00" y="560.00" width="20.00" height="20.00" />
      <rect x="440.00" y="460.00" width="20.00" height="20.00" />
      <rect x="440.00" y="380.00" width="40.00" height="20.00" />
      <rect x="440.00" y="300.00" width="20.00" height="60.00" />
      <rect x="440.00" y="120.00" width="20.00" height="160.00" />
      <rect x="440.00" y="20.00" width="20.00" height="80.00" />
      <rect x="460.00" y="800.00" width="20.00" height="40.00" />
      <rect x="460.00" y="700.00" width="20.00" height="40.00" />
      <rect x="460.00" y="520.00" width="20.00" height="80.00" />
      <rect x="460.00" y="420.00" width="20.00" height="60.00" />
      <rect x="460.00" y="220.00" width="20.00" height="80.00" />
      <rect x="460.00" y="80.00" width="40.00" height="20.00" />
      <rect x="480.00" y="720.00" width="20.00" height="40.00" />
      <rect x="480.00" y="680.00" width="20.00" height="20.00" />
      <rect x="480.00" y="600.00" width="20.00" height="60.00" />
      <rect x="480.00" y="560.00" width="20.00" height="20.00" />
      <rect x="480.00" y="480.00" width="20.00" height="20.00" />
      <rect x="480.00" y="400.00" width="20.00" height="20.00" />
      <rect x="480.00" y="340.00" width="20.00" height="20.00" />
      <rect x="480.00" y="260.00" width="20.00" height="60.00" />
      <rect x="480.00" y="160.00" width="20.00" height="60.00" />
      <rect x="480.00" y="120.00" width="40.00" height="20.00" />
      <rect x="480.00" y="20.00" width="60.00" height="20.00" />
      <rect x="500.00" y="820.00" width="20.00" height="20.00" />
      <rect x="500.00" y="780.00" width="20.00" height="20.00" />
      <rect x="500.00" y="660.00" width="20.00" height="100.00" />
      <rect x="500.00" y="580.00" width="20.00" height="60.00" />
      <rect x="500.00" y="540.00" width="20.00" height="20.00" />
      <rect x="500.00" y="420.00" width="20.00" height="80.00" />
      <rect x="500.00" y="280.00" width="20.00" height="80.00" />
      <rect x="500.00" y="240.00" width="20.00" height="20.00" />
      <rect x="500.00" y="200.00" width="20.00" height="20.00" />
      <rect x="500.00" y="60.00" width="20.00" height="20.00" />
      <rect x="520.00" y="800.00" width="20.00" height="40.00" />
      <rect x="520.00" y="740.00" width="60.00" height="20.00" />
      <rect x="520.00" y="640.00" width="20.00" height="20.00" />
      <rect x="520.00" y="520.00" width="20.00" height="60.00" />
      <rect x="520.00" y="460.00" width="20.00" height="20.00" />
      <rect x="520.00" y="400.00" width="20.00" height="20.00" />
      <rect x="520.00" y="260.00" width="20.00" height="20.00" />
      <rect x="520.00" y="200.00" width="20.00" height="40.00" />
      <rect x="520.00" y="80.00" width="20.00" height="100.00" />
      <rect x="540.00" y="820.00" width="40.00" height="20.00" />
      <rect x="540.00" y="620.00" width="20.00" height="100.00" />
      <rect x="540.00" y="580.00" width="20.00" height="20.00" />
      <rect x="540.00" y="480.00" width="20.00" height="80.00" />
      <rect x="540.00" y="280.00" width="20.00" height="40.00" />
      <rect x="540.00" y="180.00" width="20.00" height="20.00" />
      <rect x="540.00" y="100.00" width="20.00" height="60.00" />
      <rect x="560.00" y="780.00" width="20.00" height="20.00" />
      <rect x="560.00" y="660.00" width="20.00" height="40.00" />
      <rect x="560.00" y="560.00" width="20.00" height="40.00" />
      <rect x="560.00" y="480.00" width="20.00" height="60.00" />
      <rect x="560.00" y="380.00" width="20.00" height="40.00" />
      <rect x="560.00" y="340.00" width="20.00" height="20.00" />
      <rect x="560.00" y="140.00" width="20.00" height="100.00" />
      <rect x="560.00" y="80.00" width="20.00" height="40.00" />
      <rect x="560.00" y="40.00" width="20.00" height="20.00" />
      <rect x="580.00" y="780.00" width="20.00" height="60.00" />
      <rect x="580.00" y="680.00" width="20.00" height="40.00" />
      <rect x="580.00" y="600.00" width="20.00" height="20.00" />
      <rect x="580.00" y="560.00" width="20.00" height="20.00" />
      <rect x="580.00" y="500.00" width="20.00" height="40.00" />
      <rect x="580.00" y="460.00" width="20.00" height="20.00" />
      <rect x="580.00" y="420.00" width="20.00" height="20.00" />
      <rect x="580.00" y="280.00" width="20.00" height="120.00" />
      <rect x="580.00" y="240.00" width="20.00" height="20.00" />
      <rect x="580.00" y="180.00" width="20.00" height="40.00" />
      <rect x="580.00" y="140.00" width="20.00" height="20.00" />
      <rect x="580.00" y="20.00" width="20.00" height="80.00" />
      <rect x="600.00" y="820.00" width="80.00" height="20.00" />
      <rect x="600.00" y="760.00" width="20.00" height="20.00" />
      <rect x="600.00" y="720.00" width="20.00" height="20.00" />
      <rect x="600.00" y="680.00" width="20.00" height="20.00" />
      <rect x="600.00" y="620.00" width="20.00" height="40.00" />
      <rect x="600.00" y="540.00" width="20.00" height="40.00" />
      <rect x="600.00" y="500.00" width="20.00" height="20.00" />
      <rect x="600.00" y="440.00" width="20.00" height="40.00" />
      <rect x="600.00" y="260.00" width="20.00" height="120.00" />
      <rect x="600.00" y="220.00" width="20.00" height="20.00" />
      <rect x="600.00" y="160.00" width="20.00" height="20.00" />
      <rect x="600.00" y="80.00" width="20.00" height="60.00" />
      <rect x="600.00" y="20.00" width="20.00" height="40.00" />
      <rect x="620.00" y="620.00" width="20.00" height="100.00" />
      <rect x="620.00" y="580.00" width="40.00" height="20.00" />
      <rect x="620.00" y="440.00" width="20.00" height="120.00" />
      <rect x="620.00" y="400.00" width="20.00" height="20.00" />
      <rect x="620.00" y="360.00" width="20.00" height="20.00" />
      <rect x="620.00" y="140.00" width="20.00" height="60.00" />
      <rect x="620.00" y="80.00" width="40.00" height="20.00" />
      <rect x="640.00" y="720.00" width="20.00" height="80.00" />
      <rect x="640.00" y="620.00" width="20.00" height="20.00" />
      <rect x="640.00" y="480.00" width="20.00" height="80.00" />
      <rect x="640.00" y="400.00" width="20.00" height="60.00" />
      <rect x="640.00" y="320.00" width="20.00" height="40.00" />
      <rect x="640.00" y="260.00" width="20.00" height="20.00" />
      <rect x="640.00" y="120.00" width="20.00" height="60.00" />
      <rect x="640.00" y="20.00" width="20.00" height="40.00" />
      <rect x="660.00" y="620.00" width="20.00" height="120.00" />
      <rect x="660.00" y="500.00" width="20.00" height="20.00" />
      <rect x="660.00" y="420.00" width="40.00" height="20.00" />
      <rect x="660.00" y="360.00" width="20.00" height="40.00" />
      <rect x="660.00" y="220.00" width="20.00" height="60.00" />
      <rect x="660.00" y="100.00" width="20.00" height="100.00" />
      <rect x="660.00" y="60.00" width="20.00" height="20.00" />
      <rect x="660.00" y="20.00" width="20.00" height="20.00" />
      <rect x="680.00" y="640.00" width="20.00" height="40.00" />
      <rect x="680.00" y="580.00" width="20.00" height="20.00" />
      <rect x="680.00" y="540.00" width="20.00" height="20.00" />
      <rect x="680.00" y="480.00" width="20.00" height="20.00" />
      <rect x="680.00" y="320.00" width="20.00" height="40.00" />
      <rect x="680.00" y="220.00" width="20.00" height="20.00" />
      <rect x="680.00" y="180.00" width="20.00" height="20.00" />
      <rect x="680.00" y="20.00" width="20.00" height="100.00" />
      <rect x="700.00" y="700.00" width="20.00" height="140.00" />
      <rect x="700.00" y="600.00" width="20.00" height="40.00" />
      <rect x="700.00" y="500.00" width="20.00" height="20.00" />
      <rect x="700.00" y="420.00" width="20.00" height="40.00" />
      <rect x="700.00" y="320.00" width="20.00" height="60.00" />
      <rect x="700.00" y="260.00" width="20.00" height="40.00" />
      <rect x="700.00" y="180.00" width="20.00" height="60.00" />
      <rect x="700.00" y="140.00" width="20.00" height="20.00" />
      <rect x="700.00" y="60.00" width="20.00" height="60.00" />
      <rect x="720.00" y="820.00" width="100.00" height="20.00" />
      <rect x="720.00" y="700.00" width="100.00" height="20.00" />
      <rect x="720.00" y="600.00" width="20.00" height="20.00" />
      <rect x="720.00" y="520.00" width="20.00" height="40.00" />
      <rect x="720.00" y="400.00" width="20.00" height="20.00" />
      <rect x="720.00" y="340.00" width="20.00" height="20.00" />
      <rect x="720.00" y="260.00" width="20.00" height="60.00" />
      <rect x="720.00" y="180.00" width="20.00" height="40.00" />
      <rect x="720.00" y="80.00" width="20.00" height="40.00" />
      <rect x="720.00" y="40.00" width="20.00" height="20.00" />
      <rect x="740.00" y="740.00" width="60.00" height="60.00" />
      <rect x="740.00" y="600.00" width="20.00" height="80.00" />
      <rect x="740.00" y="520.00" width="20.00" height="20.00" />
      <rect x="740.00" y="420.00" width="20.00" height="40.00" />
      <rect x="740.00" y="380.00" width="20.00" height="20.00" />
      <rect x="740.00" y="300.00" width="40.00" height="20.00" />
      <rect x="740.00" y="260.00" width="20.00" height="20.00" />
      <rect x="740.00" y="220.00" width="20.00" height="20.00" />
      <rect x="740.00" y="100.00" width="20.00" height="100.00" />
      <rect x="740.00" y="60.00" width="20.00" height="20.00" />
      <rect x="760.00" y="640.00" width="20.00" height="40.00" />
      <rect x="760.00" y="560.00" width="20.00" height="40.00" />
      <rect x="760.00" y="380.00" width="20.00" height="80.00" />
      <rect x="760.00" y="340.00" width="20.00" height="20.00" />
      <rect x="760.00" y="240.00" width="20.00" height="40.00" />
      <rect x="760.00" y="200.00" width="20.00" height="20.00" />
      <rect x="760.00" y="160.00" width="20.00" height="20.00" />
      <rect x="760.00" y="120.00" width="20.00" height="20.00" />
      <rect x="760.00" y="20.00" width="20.00" height="80.00" />
      <rect x="780.00" y="660.00" width="20.00" height="20.00" />
      <rect x="780.00" y="580.00" width="20.00" height="20.00" />
      <rect x="780.00" y="480.00" width="20.00" height="40.00" />
      <rect x="780.00" y="420.00" width="20.00" height="40.00" />
      <rect x="780.00" y="280.00" width="20.00" height="80.00" />
      <rect x="780.00" y="200.00" width="20.00" height="40.00" />
      <rect x="780.00" y="100.00" width="20.00" height="80.00" />
      <rect x="780.00" y="40.00" width="40.00" height="20.00" />
      <rect x="800.00" y="580.00" width="20.00" height="60.00" />
      <rect x="800.00" y="520.00" width="20.00" height="40.00" />
      <rect x="800.00" y="440.00" width="20.00" height="40.00" />
      <rect x="800.00" y="400.00" width="20.00" height="20.00" />
      <rect x="800.00" y="340.00" width="20.00" height="40.00" />
      <rect x="800.00" y="280.00" width="20.00" height="20.00" />
      <rect x="800.00" y="140.00" width="20.00" height="60.00" />
      <rect x="800.00" y="100.00" width="20.00" height="20.00" />
      <rect x="820.00" y="700.00" width="20.00" height="140.00" />
      <rect x="820.00" y="640.00" width="20.00" height="20.00" />
      <rect x="820.00" y="560.00" width="20.00" height="60.00" />
      <rect x="820.00" y="500.00" width="20.00" height="20.00" />
      <rect x="820.00" y="420.00" width="20.00" height="60.00" />
      <rect x="820.00" y="380.00" width="20.00" height="20.00" />
      <rect x="820.00" y="320.00" width="20.00" height="40.00" />
      <rect x="820.00" y="240.00" width="20.00" height="40.00" />
      <rect x="820.00" y="160.00" width="20.00" height="20.00" />
      <rect x="820.00" y="100.00" width="20.00" height="40.00" />
   </g>
</svg>
